<svg width="181" height="66" viewBox="0 0 181 66" fill="none" xmlns="http://www.w3.org/2000/svg">
<g clip-path="url(#clip0_1238_855)">
<path d="M33.7879 67.9207L34.5194 26.017M34.7833 10.8943L49.6421 26.281M34.7833 10.8943L34.5194 26.017M34.7833 10.8943L19.3967 25.7531M34.5194 26.017L49.3781 41.4037" stroke="#205E40" stroke-width="3.85"/>
<path d="M33.7879 67.9207L34.5194 26.017M34.7833 10.8943L49.6421 26.281M34.7833 10.8943L34.5194 26.017M34.7833 10.8943L19.3967 25.7531M34.5194 26.017L49.3781 41.4037" stroke="black" stroke-opacity="0.2" stroke-width="3.85"/>
<path d="M30.0166 68.0263L29.313 27.7174L16.2914 41.2017" stroke="#205E40" stroke-width="3.85"/>
<path d="M30.0166 68.0263L29.313 27.7174L16.2914 41.2017" stroke="black" stroke-opacity="0.2" stroke-width="3.85"/>
</g>
<rect x="2.2" y="2.2" width="61.6" height="61.6" rx="25.3" stroke="#205E40" stroke-width="4.4"/>
<rect x="2.2" y="2.2" width="61.6" height="61.6" rx="25.3" stroke="black" stroke-opacity="0.2" stroke-width="4.4"/>
<path d="M70.598 25.822C71.1847 25.822 71.566 25.734 71.742 25.558C71.962 25.3673 72.0794 24.9273 72.094 24.238L72.49 12.6H79.332V28H76.868V14.8H74.756L74.492 24.106C74.448 25.514 74.1547 26.5187 73.612 27.12C73.0694 27.7213 72.1894 28.022 70.972 28.022H70.598V25.822ZM84.7703 28H82.2843V12.6H84.4403V22.346L85.3203 18.958L87.3003 12.6H89.9623V28H87.7843V17.154L86.7943 20.938L84.7703 28ZM99.791 22.258V24.304C99.791 26.8853 98.5883 28.176 96.183 28.176C93.7777 28.176 92.575 26.8853 92.575 24.304V16.296C92.575 13.7147 93.7777 12.424 96.183 12.424C98.5883 12.424 99.791 13.7147 99.791 16.296V17.792H97.503V16.142C97.503 15.13 97.085 14.624 96.249 14.624C95.413 14.624 94.995 15.13 94.995 16.142V24.458C94.995 25.4553 95.413 25.954 96.249 25.954C97.085 25.954 97.503 25.4553 97.503 24.458V22.258H99.791ZM101.655 12.6H109.135V14.8H106.605V28H104.185V14.8H101.655V12.6ZM114.953 12.6C117.344 12.6 118.539 13.7807 118.539 16.142V16.692C118.539 18.276 118.018 19.31 116.977 19.794C118.18 20.2633 118.781 21.3633 118.781 23.094V24.348C118.781 26.7827 117.556 28 115.107 28H111.301V12.6H114.953ZM113.721 21.07V25.8H115.107C115.943 25.8 116.361 25.294 116.361 24.282V22.94C116.361 22.236 116.236 21.7447 115.987 21.466C115.752 21.202 115.356 21.07 114.799 21.07H113.721ZM113.721 14.8V18.87H114.667C115.635 18.87 116.119 18.3273 116.119 17.242V16.384C116.119 15.328 115.708 14.8 114.887 14.8H113.721ZM123.759 19.09H127.081V21.29H123.759V25.8H127.939V28H121.339V12.6H127.939V14.8H123.759V19.09ZM132.958 28H130.538V12.6H132.958V19.2H135.708V12.6H138.172V28H135.708V21.4H132.958V28ZM143.447 28H141.027V12.6H143.447V19.2H146.197V12.6H148.661V28H146.197V21.4H143.447V28ZM154.002 28H151.516V12.6H153.672V22.346L154.552 18.958L156.532 12.6H159.194V28H157.016V17.154L156.026 20.938L154.002 28ZM162.004 12.6H164.424V25.8H167.174V12.6H169.638V25.844H170.694V30.068H168.34V28H162.004V12.6ZM180.948 28H178.506L178.088 25.206H175.118L174.7 28H172.478L174.942 12.6H178.484L180.948 28ZM175.426 23.116H177.758L176.592 15.328L175.426 23.116ZM73.502 46.458C73.502 47.47 73.92 47.976 74.756 47.976C75.592 47.976 76.01 47.47 76.01 46.458V38.142C76.01 37.13 75.592 36.624 74.756 36.624C73.92 36.624 73.502 37.13 73.502 38.142V46.458ZM71.082 38.296C71.082 37.064 71.3974 36.1107 72.028 35.436C72.6587 34.7613 73.568 34.424 74.756 34.424C75.944 34.424 76.8534 34.7613 77.484 35.436C78.1147 36.1107 78.43 37.064 78.43 38.296V46.304C78.43 47.536 78.1147 48.4893 77.484 49.164C76.8534 49.8387 75.944 50.176 74.756 50.176C73.568 50.176 72.6587 49.8387 72.028 49.164C71.3974 48.4893 71.082 47.536 71.082 46.304V38.296ZM83.5227 50H81.1027V34.6H88.7367V50H86.2727V36.8H83.5227V50ZM90.8874 34.6H98.3674V36.8H95.8374V50H93.4174V36.8H90.8874V34.6Z" fill="#002714"/>
<defs>
<clipPath id="clip0_1238_855">
<rect width="66" height="66" rx="27.5" fill="white"/>
</clipPath>
</defs>
</svg>
